<svg xmlns="http://www.w3.org/2000/svg" version="1.1" xmlns:xlink="http://www.w3.org/1999/xlink" width="200" height="200"><svg width="200" height="200" viewBox="0 0 200 200" class="w-full max-w-[200px]"><defs><linearGradient id="SvgjsLinearGradient1162" x1="0%" y1="0%" x2="0%" y2="100%"><stop offset="0%" style="stop-color: rgb(30, 58, 138); stop-opacity: 1;"></stop><stop offset="100%" style="stop-color: rgb(37, 99, 235); stop-opacity: 1;"></stop></linearGradient></defs><path d="M100 25 L165 45 L165 105 Q165 145 100 185 Q35 145 35 105 L35 45 Z" fill="url(#bs-gradient-1)" stroke="white" stroke-width="4"></path><path d="M100 35 L155 50 L155 105 Q155 140 100 175 Q45 140 45 105 L45 50 Z" fill="none" stroke="white" stroke-width="3"></path><path d="M100 60 L105 75 L121 75 L108 85 L113 100 L100 90 L87 100 L92 85 L79 75 L95 75 Z" fill="white"></path><text x="100" y="135" text-anchor="middle" fill="white" font-size="28" font-weight="bold" font-family="Arial, sans-serif">ГАИ</text></svg><style>@media (prefers-color-scheme: light) { :root { filter: none; } }
@media (prefers-color-scheme: dark) { :root { filter: none; } }
</style></svg>